<svg xmlns="http://www.w3.org/2000/svg" xmlns:xlink="http://www.w3.org/1999/xlink" width="500" zoomAndPan="magnify" viewBox="40 120 120 140" height="500" preserveAspectRatio="xMidYMid meet" version="1.0"><defs><g/><clipPath id="dffcd5ef94"><path d="M 0 107.027344 L 200.742188 107.027344 L 200.742188 354.527344 L 0 354.527344 Z M 0 107.027344 " clip-rule="nonzero"/></clipPath><clipPath id="70f6dde4a2"><rect x="0" width="201" y="0" height="248"/></clipPath><clipPath id="27a8bbc336"><rect x="0" width="218" y="0" height="49"/></clipPath></defs><g clip-path="url(#dffcd5ef94)"><g transform="matrix(1, 0, 0, 1, 0, 107)"><g clip-path="url(#70f6dde4a2)"><path fill="#000000" d="M 138.902344 46.441406 L 131.164062 46.441406 L 131.164062 54.175781 L 138.902344 54.175781 Z M 138.902344 46.441406 " fill-opacity="1" fill-rule="nonzero"/><path fill="#000000" d="M 131.164062 38.707031 L 123.429688 38.707031 L 123.429688 46.441406 L 131.164062 46.441406 Z M 131.164062 38.707031 " fill-opacity="1" fill-rule="nonzero"/><path fill="#000000" d="M 123.429688 30.96875 L 115.695312 30.96875 L 115.695312 38.707031 L 123.429688 38.707031 Z M 123.429688 30.96875 " fill-opacity="1" fill-rule="nonzero"/><path fill="#000000" d="M 115.695312 30.96875 L 107.957031 30.96875 L 107.957031 38.707031 L 115.695312 38.707031 Z M 115.695312 30.96875 " fill-opacity="1" fill-rule="nonzero"/><path fill="#000000" d="M 107.957031 23.234375 L 100.222656 23.234375 L 100.222656 30.96875 L 107.957031 30.96875 Z M 107.957031 23.234375 " fill-opacity="1" fill-rule="nonzero"/><path fill="#000000" d="M 100.222656 23.234375 L 92.488281 23.234375 L 92.488281 30.96875 L 100.222656 30.96875 Z M 100.222656 23.234375 " fill-opacity="1" fill-rule="nonzero"/><path fill="#000000" d="M 92.488281 23.234375 L 84.75 23.234375 L 84.75 30.96875 L 92.488281 30.96875 Z M 92.488281 23.234375 " fill-opacity="1" fill-rule="nonzero"/><path fill="#000000" d="M 84.75 23.234375 L 77.015625 23.234375 L 77.015625 30.96875 L 84.75 30.96875 Z M 84.75 23.234375 " fill-opacity="1" fill-rule="nonzero"/><path fill="#000000" d="M 77.015625 30.96875 L 69.277344 30.96875 L 69.277344 38.707031 L 77.015625 38.707031 Z M 77.015625 30.96875 " fill-opacity="1" fill-rule="nonzero"/><path fill="#000000" d="M 69.277344 30.96875 L 61.542969 30.96875 L 61.542969 38.707031 L 69.277344 38.707031 Z M 69.277344 30.96875 " fill-opacity="1" fill-rule="nonzero"/><path fill="#000000" d="M 61.542969 38.707031 L 53.808594 38.707031 L 53.808594 46.441406 L 61.542969 46.441406 Z M 61.542969 38.707031 " fill-opacity="1" fill-rule="nonzero"/><path fill="#000000" d="M 53.808594 46.441406 L 46.070312 46.441406 L 46.070312 54.175781 L 53.808594 54.175781 Z M 53.808594 46.441406 " fill-opacity="1" fill-rule="nonzero"/><path fill="#000000" d="M 146.636719 54.175781 L 138.902344 54.175781 L 138.902344 61.914062 L 146.636719 61.914062 Z M 146.636719 54.175781 " fill-opacity="1" fill-rule="nonzero"/><path fill="#000000" d="M 138.902344 54.175781 L 131.164062 54.175781 L 131.164062 61.914062 L 138.902344 61.914062 Z M 138.902344 54.175781 " fill-opacity="1" fill-rule="nonzero"/><path fill="#000000" d="M 131.164062 54.175781 L 123.429688 54.175781 L 123.429688 61.914062 L 131.164062 61.914062 Z M 131.164062 54.175781 " fill-opacity="1" fill-rule="nonzero"/><path fill="#000000" d="M 123.429688 54.175781 L 115.695312 54.175781 L 115.695312 61.914062 L 123.429688 61.914062 Z M 123.429688 54.175781 " fill-opacity="1" fill-rule="nonzero"/><path fill="#000000" d="M 115.695312 54.175781 L 107.957031 54.175781 L 107.957031 61.914062 L 115.695312 61.914062 Z M 115.695312 54.175781 " fill-opacity="1" fill-rule="nonzero"/><path fill="#000000" d="M 107.957031 54.175781 L 100.222656 54.175781 L 100.222656 61.914062 L 107.957031 61.914062 Z M 107.957031 54.175781 " fill-opacity="1" fill-rule="nonzero"/><path fill="#000000" d="M 100.222656 54.175781 L 92.488281 54.175781 L 92.488281 61.914062 L 100.222656 61.914062 Z M 100.222656 54.175781 " fill-opacity="1" fill-rule="nonzero"/><path fill="#000000" d="M 92.488281 54.175781 L 84.75 54.175781 L 84.75 61.914062 L 92.488281 61.914062 Z M 92.488281 54.175781 " fill-opacity="1" fill-rule="nonzero"/><path fill="#000000" d="M 84.75 54.175781 L 77.015625 54.175781 L 77.015625 61.914062 L 84.75 61.914062 Z M 84.75 54.175781 " fill-opacity="1" fill-rule="nonzero"/><path fill="#000000" d="M 77.015625 54.175781 L 69.277344 54.175781 L 69.277344 61.914062 L 77.015625 61.914062 Z M 77.015625 54.175781 " fill-opacity="1" fill-rule="nonzero"/><path fill="#000000" d="M 69.277344 54.175781 L 61.542969 54.175781 L 61.542969 61.914062 L 69.277344 61.914062 Z M 69.277344 54.175781 " fill-opacity="1" fill-rule="nonzero"/><path fill="#000000" d="M 61.542969 54.175781 L 53.808594 54.175781 L 53.808594 61.914062 L 61.542969 61.914062 Z M 61.542969 54.175781 " fill-opacity="1" fill-rule="nonzero"/><path fill="#000000" d="M 53.808594 54.175781 L 46.070312 54.175781 L 46.070312 61.914062 L 53.808594 61.914062 Z M 53.808594 54.175781 " fill-opacity="1" fill-rule="nonzero"/><path fill="#000000" d="M 138.902344 61.914062 L 131.164062 61.914062 L 131.164062 69.648438 L 138.902344 69.648438 Z M 138.902344 61.914062 " fill-opacity="1" fill-rule="nonzero"/><path fill="#000000" d="M 123.429688 61.914062 L 115.695312 61.914062 L 115.695312 69.648438 L 123.429688 69.648438 Z M 123.429688 61.914062 " fill-opacity="1" fill-rule="nonzero"/><path fill="#000000" d="M 107.957031 61.914062 L 100.222656 61.914062 L 100.222656 69.648438 L 107.957031 69.648438 Z M 107.957031 61.914062 " fill-opacity="1" fill-rule="nonzero"/><path fill="#000000" d="M 92.488281 61.914062 L 84.75 61.914062 L 84.75 69.648438 L 92.488281 69.648438 Z M 92.488281 61.914062 " fill-opacity="1" fill-rule="nonzero"/><path fill="#000000" d="M 77.015625 61.914062 L 69.277344 61.914062 L 69.277344 69.648438 L 77.015625 69.648438 Z M 77.015625 61.914062 " fill-opacity="1" fill-rule="nonzero"/><path fill="#000000" d="M 61.542969 61.914062 L 53.808594 61.914062 L 53.808594 69.648438 L 61.542969 69.648438 Z M 61.542969 61.914062 " fill-opacity="1" fill-rule="nonzero"/><path fill="#000000" d="M 100.222656 69.648438 L 92.488281 69.648438 L 92.488281 77.386719 L 100.222656 77.386719 Z M 100.222656 69.648438 " fill-opacity="1" fill-rule="nonzero"/><path fill="#000000" d="M 100.222656 77.386719 L 92.488281 77.386719 L 92.488281 85.121094 L 100.222656 85.121094 Z M 100.222656 77.386719 " fill-opacity="1" fill-rule="nonzero"/><path fill="#000000" d="M 100.222656 85.121094 L 92.488281 85.121094 L 92.488281 92.855469 L 100.222656 92.855469 Z M 100.222656 85.121094 " fill-opacity="1" fill-rule="nonzero"/><path fill="#000000" d="M 100.222656 92.855469 L 92.488281 92.855469 L 92.488281 100.59375 L 100.222656 100.59375 Z M 100.222656 92.855469 " fill-opacity="1" fill-rule="nonzero"/><path fill="#000000" d="M 92.488281 100.59375 L 84.75 100.59375 L 84.75 108.328125 L 92.488281 108.328125 Z M 92.488281 100.59375 " fill-opacity="1" fill-rule="nonzero"/><path fill="#000000" d="M 84.75 100.59375 L 77.015625 100.59375 L 77.015625 108.328125 L 84.75 108.328125 Z M 84.75 100.59375 " fill-opacity="1" fill-rule="nonzero"/></g></g></g><g transform="matrix(1, 0, 0, 1, 108, 173)"><g clip-path="url(#27a8bbc336)"><g fill="#ff0000" fill-opacity="1"><g transform="translate(2.592618, 37.40791)"><g><path d="M 5.355469 0 L 13.074219 0 C 13.335938 0 13.558594 -0.226562 13.558594 -0.488281 L 13.558594 -1.3125 C 13.558594 -1.574219 13.785156 -1.796875 14.046875 -1.796875 L 15.246094 -1.796875 C 15.507812 -1.796875 15.734375 -2.023438 15.734375 -2.285156 L 15.734375 -3.070312 C 15.734375 -3.332031 15.957031 -3.558594 16.21875 -3.558594 L 17.417969 -3.558594 C 17.679688 -3.558594 17.90625 -3.785156 17.90625 -4.046875 L 17.90625 -13.785156 C 17.90625 -14.046875 17.679688 -14.273438 17.417969 -14.273438 L 16.21875 -14.273438 C 15.957031 -14.273438 15.734375 -14.496094 15.734375 -14.757812 L 15.734375 -15.582031 C 15.734375 -15.84375 15.507812 -16.070312 15.246094 -16.070312 L 14.046875 -16.070312 C 13.785156 -16.070312 13.558594 -16.292969 13.558594 -16.558594 L 13.558594 -17.34375 C 13.558594 -17.605469 13.335938 -17.832031 13.074219 -17.832031 L 5.355469 -17.832031 C 5.09375 -17.832031 4.871094 -17.605469 4.871094 -17.34375 L 4.871094 -16.558594 C 4.871094 -16.292969 4.644531 -16.070312 4.382812 -16.070312 L 3.183594 -16.070312 C 2.921875 -16.070312 2.695312 -15.84375 2.695312 -15.582031 L 2.695312 -14.757812 C 2.695312 -14.496094 2.472656 -14.273438 2.210938 -14.273438 L 1.011719 -14.273438 C 0.75 -14.273438 0.523438 -14.046875 0.523438 -13.785156 L 0.523438 -4.046875 C 0.523438 -3.785156 0.75 -3.558594 1.011719 -3.558594 L 2.210938 -3.558594 C 2.472656 -3.558594 2.695312 -3.332031 2.695312 -3.070312 L 2.695312 -2.285156 C 2.695312 -2.023438 2.921875 -1.796875 3.183594 -1.796875 L 4.382812 -1.796875 C 4.644531 -1.796875 4.871094 -1.574219 4.871094 -1.3125 L 4.871094 -0.488281 C 4.871094 -0.226562 5.09375 0 5.355469 0 Z M 4.871094 -13.785156 C 4.871094 -14.046875 5.09375 -14.273438 5.355469 -14.273438 L 13.074219 -14.273438 C 13.335938 -14.273438 13.558594 -14.046875 13.558594 -13.785156 L 13.558594 -4.046875 C 13.558594 -3.785156 13.335938 -3.558594 13.074219 -3.558594 L 5.355469 -3.558594 C 5.09375 -3.558594 4.871094 -3.785156 4.871094 -4.046875 Z M 4.871094 -13.785156 "/></g></g></g><g fill="#ff0000" fill-opacity="1"><g transform="translate(23.08178, 37.40791)"><g><path d="M 0.523438 -21.914062 C 0.523438 -21.652344 0.75 -21.425781 1.011719 -21.425781 L 4.382812 -21.425781 C 4.644531 -21.425781 4.871094 -21.652344 4.871094 -21.914062 L 4.871094 -24.496094 C 4.871094 -24.761719 4.644531 -24.984375 4.382812 -24.984375 L 1.011719 -24.984375 C 0.75 -24.984375 0.523438 -24.761719 0.523438 -24.496094 Z M 13.074219 0 C 13.335938 0 13.558594 -0.226562 13.558594 -0.488281 L 13.558594 -3.070312 C 13.558594 -3.332031 13.335938 -3.558594 13.074219 -3.558594 L 5.355469 -3.558594 C 5.09375 -3.558594 4.871094 -3.785156 4.871094 -4.046875 L 4.871094 -17.34375 C 4.871094 -17.605469 4.644531 -17.832031 4.382812 -17.832031 L 1.011719 -17.832031 C 0.75 -17.832031 0.523438 -17.605469 0.523438 -17.34375 L 0.523438 -4.046875 C 0.523438 -3.785156 0.75 -3.558594 1.011719 -3.558594 L 2.210938 -3.558594 C 2.472656 -3.558594 2.695312 -3.332031 2.695312 -3.070312 L 2.695312 -2.285156 C 2.695312 -2.023438 2.921875 -1.796875 3.183594 -1.796875 L 4.382812 -1.796875 C 4.644531 -1.796875 4.871094 -1.574219 4.871094 -1.3125 L 4.871094 -0.488281 C 4.871094 -0.226562 5.09375 0 5.355469 0 Z M 13.074219 0 "/></g></g></g><g fill="#ff0000" fill-opacity="1"><g transform="translate(39.225947, 37.40791)"><g><path d="M 0.523438 -0.488281 C 0.523438 -0.226562 0.75 0 1.011719 0 L 4.382812 0 C 4.644531 0 4.871094 -0.226562 4.871094 -0.488281 L 4.871094 -13.785156 C 4.871094 -14.046875 5.09375 -14.273438 5.355469 -14.273438 L 13.074219 -14.273438 C 13.335938 -14.273438 13.558594 -14.046875 13.558594 -13.785156 L 13.558594 -0.488281 C 13.558594 -0.226562 13.785156 0 14.046875 0 L 17.417969 0 C 17.679688 0 17.90625 -0.226562 17.90625 -0.488281 L 17.90625 -13.785156 C 17.90625 -14.046875 17.679688 -14.273438 17.417969 -14.273438 L 16.21875 -14.273438 C 15.957031 -14.273438 15.734375 -14.496094 15.734375 -14.757812 L 15.734375 -15.582031 C 15.734375 -15.84375 15.507812 -16.070312 15.246094 -16.070312 L 14.046875 -16.070312 C 13.785156 -16.070312 13.558594 -16.292969 13.558594 -16.558594 L 13.558594 -17.34375 C 13.558594 -17.605469 13.335938 -17.832031 13.074219 -17.832031 L 5.355469 -17.832031 C 5.09375 -17.832031 4.871094 -17.605469 4.871094 -17.34375 L 4.871094 -16.558594 C 4.871094 -16.292969 4.644531 -16.070312 4.382812 -16.070312 L 3.183594 -16.070312 C 2.921875 -16.070312 2.695312 -15.84375 2.695312 -15.582031 L 2.695312 -14.757812 C 2.695312 -14.496094 2.472656 -14.273438 2.210938 -14.273438 L 1.011719 -14.273438 C 0.75 -14.273438 0.523438 -14.046875 0.523438 -13.785156 Z M 0.523438 -0.488281 "/></g></g></g><g fill="#ff0000" fill-opacity="1"><g transform="translate(59.715109, 37.40791)"><g><path d="M 0.523438 -4.046875 C 0.523438 -3.785156 0.75 -3.558594 1.011719 -3.558594 L 2.210938 -3.558594 C 2.472656 -3.558594 2.695312 -3.332031 2.695312 -3.070312 L 2.695312 -2.285156 C 2.695312 -2.023438 2.921875 -1.796875 3.183594 -1.796875 L 4.382812 -1.796875 C 4.644531 -1.796875 4.871094 -1.574219 4.871094 -1.3125 L 4.871094 -0.488281 C 4.871094 -0.226562 5.09375 0 5.355469 0 L 13.074219 0 C 13.335938 0 13.558594 -0.226562 13.558594 -0.488281 L 13.558594 -1.3125 C 13.558594 -1.574219 13.785156 -1.796875 14.046875 -1.796875 L 15.246094 -1.796875 C 15.507812 -1.796875 15.734375 -2.023438 15.734375 -2.285156 L 15.734375 -3.070312 C 15.734375 -3.332031 15.957031 -3.558594 16.21875 -3.558594 L 17.417969 -3.558594 C 17.679688 -3.558594 17.90625 -3.785156 17.90625 -4.046875 L 17.90625 -24.496094 C 17.90625 -24.761719 17.679688 -24.984375 17.417969 -24.984375 L 14.046875 -24.984375 C 13.785156 -24.984375 13.558594 -24.761719 13.558594 -24.496094 L 13.558594 -4.046875 C 13.558594 -3.785156 13.335938 -3.558594 13.074219 -3.558594 L 5.355469 -3.558594 C 5.09375 -3.558594 4.871094 -3.785156 4.871094 -4.046875 L 4.871094 -17.34375 C 4.871094 -17.605469 4.644531 -17.832031 4.382812 -17.832031 L 1.011719 -17.832031 C 0.75 -17.832031 0.523438 -17.605469 0.523438 -17.34375 Z M 0.523438 -4.046875 "/></g></g></g><g fill="#ff0000" fill-opacity="1"><g transform="translate(80.204271, 37.40791)"><g><path d="M 0.523438 -21.914062 C 0.523438 -21.652344 0.75 -21.425781 1.011719 -21.425781 L 4.382812 -21.425781 C 4.644531 -21.425781 4.871094 -21.652344 4.871094 -21.914062 L 4.871094 -24.496094 C 4.871094 -24.761719 4.644531 -24.984375 4.382812 -24.984375 L 1.011719 -24.984375 C 0.75 -24.984375 0.523438 -24.761719 0.523438 -24.496094 Z M 13.074219 0 C 13.335938 0 13.558594 -0.226562 13.558594 -0.488281 L 13.558594 -3.070312 C 13.558594 -3.332031 13.335938 -3.558594 13.074219 -3.558594 L 5.355469 -3.558594 C 5.09375 -3.558594 4.871094 -3.785156 4.871094 -4.046875 L 4.871094 -17.34375 C 4.871094 -17.605469 4.644531 -17.832031 4.382812 -17.832031 L 1.011719 -17.832031 C 0.75 -17.832031 0.523438 -17.605469 0.523438 -17.34375 L 0.523438 -4.046875 C 0.523438 -3.785156 0.75 -3.558594 1.011719 -3.558594 L 2.210938 -3.558594 C 2.472656 -3.558594 2.695312 -3.332031 2.695312 -3.070312 L 2.695312 -2.285156 C 2.695312 -2.023438 2.921875 -1.796875 3.183594 -1.796875 L 4.382812 -1.796875 C 4.644531 -1.796875 4.871094 -1.574219 4.871094 -1.3125 L 4.871094 -0.488281 C 4.871094 -0.226562 5.09375 0 5.355469 0 Z M 13.074219 0 "/></g></g></g><g fill="#ff0000" fill-opacity="1"><g transform="translate(96.348439, 37.40791)"><g><path d="M 13.074219 0 C 13.335938 0 13.558594 -0.226562 13.558594 -0.488281 L 13.558594 -3.070312 C 13.558594 -3.332031 13.335938 -3.558594 13.074219 -3.558594 L 5.355469 -3.558594 C 5.09375 -3.558594 4.871094 -3.785156 4.871094 -4.046875 L 4.871094 -24.496094 C 4.871094 -24.761719 4.644531 -24.984375 4.382812 -24.984375 L 1.011719 -24.984375 C 0.75 -24.984375 0.523438 -24.761719 0.523438 -24.496094 L 0.523438 -4.046875 C 0.523438 -3.785156 0.75 -3.558594 1.011719 -3.558594 L 2.210938 -3.558594 C 2.472656 -3.558594 2.695312 -3.332031 2.695312 -3.070312 L 2.695312 -2.285156 C 2.695312 -2.023438 2.921875 -1.796875 3.183594 -1.796875 L 4.382812 -1.796875 C 4.644531 -1.796875 4.871094 -1.574219 4.871094 -1.3125 L 4.871094 -0.488281 C 4.871094 -0.226562 5.09375 0 5.355469 0 Z M 13.074219 0 "/></g></g></g><g fill="#ff0000" fill-opacity="1"><g transform="translate(112.492607, 37.40791)"><g><path d="M 13.074219 0 C 13.335938 0 13.558594 -0.226562 13.558594 -0.488281 L 13.558594 -3.070312 C 13.558594 -3.332031 13.335938 -3.558594 13.074219 -3.558594 L 5.355469 -3.558594 C 5.09375 -3.558594 4.871094 -3.785156 4.871094 -4.046875 L 4.871094 -24.496094 C 4.871094 -24.761719 4.644531 -24.984375 4.382812 -24.984375 L 1.011719 -24.984375 C 0.75 -24.984375 0.523438 -24.761719 0.523438 -24.496094 L 0.523438 -4.046875 C 0.523438 -3.785156 0.75 -3.558594 1.011719 -3.558594 L 2.210938 -3.558594 C 2.472656 -3.558594 2.695312 -3.332031 2.695312 -3.070312 L 2.695312 -2.285156 C 2.695312 -2.023438 2.921875 -1.796875 3.183594 -1.796875 L 4.382812 -1.796875 C 4.644531 -1.796875 4.871094 -1.574219 4.871094 -1.3125 L 4.871094 -0.488281 C 4.871094 -0.226562 5.09375 0 5.355469 0 Z M 13.074219 0 "/></g></g></g><g fill="#ff0000" fill-opacity="1"><g transform="translate(128.636774, 37.40791)"><g><path d="M 17.417969 -7.117188 C 17.679688 -7.117188 17.90625 -7.34375 17.90625 -7.605469 L 17.90625 -10.1875 C 17.90625 -10.449219 17.679688 -10.675781 17.417969 -10.675781 L 5.355469 -10.675781 C 5.09375 -10.675781 4.871094 -10.902344 4.871094 -11.164062 L 4.871094 -13.785156 C 4.871094 -14.046875 5.09375 -14.273438 5.355469 -14.273438 L 17.417969 -14.273438 C 17.679688 -14.273438 17.90625 -14.496094 17.90625 -14.757812 L 17.90625 -17.34375 C 17.90625 -17.605469 17.679688 -17.832031 17.417969 -17.832031 L 5.355469 -17.832031 C 5.09375 -17.832031 4.871094 -17.605469 4.871094 -17.34375 L 4.871094 -16.558594 C 4.871094 -16.292969 4.644531 -16.070312 4.382812 -16.070312 L 3.183594 -16.070312 C 2.921875 -16.070312 2.695312 -15.84375 2.695312 -15.582031 L 2.695312 -14.757812 C 2.695312 -14.496094 2.472656 -14.273438 2.210938 -14.273438 L 1.011719 -14.273438 C 0.75 -14.273438 0.523438 -14.046875 0.523438 -13.785156 L 0.523438 -4.046875 C 0.523438 -3.785156 0.75 -3.558594 1.011719 -3.558594 L 2.210938 -3.558594 C 2.472656 -3.558594 2.695312 -3.332031 2.695312 -3.070312 L 2.695312 -2.285156 C 2.695312 -2.023438 2.921875 -1.796875 3.183594 -1.796875 L 4.382812 -1.796875 C 4.644531 -1.796875 4.871094 -1.574219 4.871094 -1.3125 L 4.871094 -0.488281 C 4.871094 -0.226562 5.09375 0 5.355469 0 L 17.417969 0 C 17.679688 0 17.90625 -0.226562 17.90625 -0.488281 L 17.90625 -3.070312 C 17.90625 -3.332031 17.679688 -3.558594 17.417969 -3.558594 L 5.355469 -3.558594 C 5.09375 -3.558594 4.871094 -3.785156 4.871094 -4.046875 L 4.871094 -6.628906 C 4.871094 -6.890625 5.09375 -7.117188 5.355469 -7.117188 Z M 17.417969 -7.117188 "/></g></g></g><g fill="#ff0000" fill-opacity="1"><g transform="translate(149.125936, 37.40791)"><g><path d="M 4.871094 -0.488281 L 4.871094 -3.070312 C 4.871094 -3.332031 4.644531 -3.558594 4.382812 -3.558594 L 1.011719 -3.558594 C 0.75 -3.558594 0.523438 -3.332031 0.523438 -3.070312 L 0.523438 -0.488281 C 0.523438 -0.226562 0.75 0 1.011719 0 L 4.382812 0 C 4.644531 0 4.871094 -0.226562 4.871094 -0.488281 Z M 4.871094 -0.488281 "/></g></g></g><g fill="#ff0000" fill-opacity="1"><g transform="translate(156.58013, 37.40791)"><g><path d="M 13.558594 -4.046875 C 13.558594 -3.785156 13.335938 -3.558594 13.074219 -3.558594 L 5.355469 -3.558594 C 5.09375 -3.558594 4.871094 -3.785156 4.871094 -4.046875 L 4.871094 -13.785156 C 4.871094 -14.046875 5.09375 -14.273438 5.355469 -14.273438 L 13.074219 -14.273438 C 13.335938 -14.273438 13.558594 -14.046875 13.558594 -13.785156 Z M 17.90625 -24.496094 C 17.90625 -24.761719 17.679688 -24.984375 17.417969 -24.984375 L 14.046875 -24.984375 C 13.785156 -24.984375 13.558594 -24.761719 13.558594 -24.496094 L 13.558594 -18.316406 C 13.558594 -18.054688 13.335938 -17.832031 13.074219 -17.832031 L 5.355469 -17.832031 C 5.09375 -17.832031 4.871094 -17.605469 4.871094 -17.34375 L 4.871094 -16.558594 C 4.871094 -16.292969 4.644531 -16.070312 4.382812 -16.070312 L 3.183594 -16.070312 C 2.921875 -16.070312 2.695312 -15.84375 2.695312 -15.582031 L 2.695312 -14.757812 C 2.695312 -14.496094 2.472656 -14.273438 2.210938 -14.273438 L 1.011719 -14.273438 C 0.75 -14.273438 0.523438 -14.046875 0.523438 -13.785156 L 0.523438 -4.046875 C 0.523438 -3.785156 0.75 -3.558594 1.011719 -3.558594 L 2.210938 -3.558594 C 2.472656 -3.558594 2.695312 -3.332031 2.695312 -3.070312 L 2.695312 -2.285156 C 2.695312 -2.023438 2.921875 -1.796875 3.183594 -1.796875 L 4.382812 -1.796875 C 4.644531 -1.796875 4.871094 -1.574219 4.871094 -1.3125 L 4.871094 -0.488281 C 4.871094 -0.226562 5.09375 0 5.355469 0 L 13.074219 0 C 13.335938 0 13.558594 -0.226562 13.558594 -0.488281 L 13.558594 -1.3125 C 13.558594 -1.574219 13.785156 -1.796875 14.046875 -1.796875 L 15.246094 -1.796875 C 15.507812 -1.796875 15.734375 -2.023438 15.734375 -2.285156 L 15.734375 -3.070312 C 15.734375 -3.332031 15.957031 -3.558594 16.21875 -3.558594 L 17.417969 -3.558594 C 17.679688 -3.558594 17.90625 -3.785156 17.90625 -4.046875 Z M 17.90625 -24.496094 "/></g></g></g><g fill="#ff0000" fill-opacity="1"><g transform="translate(177.069292, 37.40791)"><g><path d="M 17.417969 -7.117188 C 17.679688 -7.117188 17.90625 -7.34375 17.90625 -7.605469 L 17.90625 -10.1875 C 17.90625 -10.449219 17.679688 -10.675781 17.417969 -10.675781 L 5.355469 -10.675781 C 5.09375 -10.675781 4.871094 -10.902344 4.871094 -11.164062 L 4.871094 -13.785156 C 4.871094 -14.046875 5.09375 -14.273438 5.355469 -14.273438 L 17.417969 -14.273438 C 17.679688 -14.273438 17.90625 -14.496094 17.90625 -14.757812 L 17.90625 -17.34375 C 17.90625 -17.605469 17.679688 -17.832031 17.417969 -17.832031 L 5.355469 -17.832031 C 5.09375 -17.832031 4.871094 -17.605469 4.871094 -17.34375 L 4.871094 -16.558594 C 4.871094 -16.292969 4.644531 -16.070312 4.382812 -16.070312 L 3.183594 -16.070312 C 2.921875 -16.070312 2.695312 -15.84375 2.695312 -15.582031 L 2.695312 -14.757812 C 2.695312 -14.496094 2.472656 -14.273438 2.210938 -14.273438 L 1.011719 -14.273438 C 0.75 -14.273438 0.523438 -14.046875 0.523438 -13.785156 L 0.523438 -4.046875 C 0.523438 -3.785156 0.75 -3.558594 1.011719 -3.558594 L 2.210938 -3.558594 C 2.472656 -3.558594 2.695312 -3.332031 2.695312 -3.070312 L 2.695312 -2.285156 C 2.695312 -2.023438 2.921875 -1.796875 3.183594 -1.796875 L 4.382812 -1.796875 C 4.644531 -1.796875 4.871094 -1.574219 4.871094 -1.3125 L 4.871094 -0.488281 C 4.871094 -0.226562 5.09375 0 5.355469 0 L 17.417969 0 C 17.679688 0 17.90625 -0.226562 17.90625 -0.488281 L 17.90625 -3.070312 C 17.90625 -3.332031 17.679688 -3.558594 17.417969 -3.558594 L 5.355469 -3.558594 C 5.09375 -3.558594 4.871094 -3.785156 4.871094 -4.046875 L 4.871094 -6.628906 C 4.871094 -6.890625 5.09375 -7.117188 5.355469 -7.117188 Z M 17.417969 -7.117188 "/></g></g></g><g fill="#ff0000" fill-opacity="1"><g transform="translate(197.558454, 37.40791)"><g><path d="M 0.523438 -4.046875 C 0.523438 -3.785156 0.75 -3.558594 1.011719 -3.558594 L 2.210938 -3.558594 C 2.472656 -3.558594 2.695312 -3.332031 2.695312 -3.070312 L 2.695312 -2.285156 C 2.695312 -2.023438 2.921875 -1.796875 3.183594 -1.796875 L 4.382812 -1.796875 C 4.644531 -1.796875 4.871094 -1.574219 4.871094 -1.3125 L 4.871094 -0.488281 C 4.871094 -0.226562 5.09375 0 5.355469 0 L 13.074219 0 C 13.335938 0 13.558594 -0.226562 13.558594 -0.488281 L 13.558594 -1.3125 C 13.558594 -1.574219 13.785156 -1.796875 14.046875 -1.796875 L 15.246094 -1.796875 C 15.507812 -1.796875 15.734375 -2.023438 15.734375 -2.285156 L 15.734375 -3.070312 C 15.734375 -3.332031 15.957031 -3.558594 16.21875 -3.558594 L 17.417969 -3.558594 C 17.679688 -3.558594 17.90625 -3.785156 17.90625 -4.046875 L 17.90625 -24.496094 C 17.90625 -24.761719 17.679688 -24.984375 17.417969 -24.984375 L 14.046875 -24.984375 C 13.785156 -24.984375 13.558594 -24.761719 13.558594 -24.496094 L 13.558594 -4.046875 C 13.558594 -3.785156 13.335938 -3.558594 13.074219 -3.558594 L 5.355469 -3.558594 C 5.09375 -3.558594 4.871094 -3.785156 4.871094 -4.046875 L 4.871094 -17.34375 C 4.871094 -17.605469 4.644531 -17.832031 4.382812 -17.832031 L 1.011719 -17.832031 C 0.75 -17.832031 0.523438 -17.605469 0.523438 -17.34375 Z M 0.523438 -4.046875 "/></g></g></g><g fill="#00ffff" fill-opacity="1"><g transform="translate(1.187804, 37.40791)"><g><path d="M 5.355469 0 L 13.074219 0 C 13.335938 0 13.558594 -0.226562 13.558594 -0.488281 L 13.558594 -1.3125 C 13.558594 -1.574219 13.785156 -1.796875 14.046875 -1.796875 L 15.246094 -1.796875 C 15.507812 -1.796875 15.734375 -2.023438 15.734375 -2.285156 L 15.734375 -3.070312 C 15.734375 -3.332031 15.957031 -3.558594 16.21875 -3.558594 L 17.417969 -3.558594 C 17.679688 -3.558594 17.90625 -3.785156 17.90625 -4.046875 L 17.90625 -13.785156 C 17.90625 -14.046875 17.679688 -14.273438 17.417969 -14.273438 L 16.21875 -14.273438 C 15.957031 -14.273438 15.734375 -14.496094 15.734375 -14.757812 L 15.734375 -15.582031 C 15.734375 -15.84375 15.507812 -16.070312 15.246094 -16.070312 L 14.046875 -16.070312 C 13.785156 -16.070312 13.558594 -16.292969 13.558594 -16.558594 L 13.558594 -17.34375 C 13.558594 -17.605469 13.335938 -17.832031 13.074219 -17.832031 L 5.355469 -17.832031 C 5.09375 -17.832031 4.871094 -17.605469 4.871094 -17.34375 L 4.871094 -16.558594 C 4.871094 -16.292969 4.644531 -16.070312 4.382812 -16.070312 L 3.183594 -16.070312 C 2.921875 -16.070312 2.695312 -15.84375 2.695312 -15.582031 L 2.695312 -14.757812 C 2.695312 -14.496094 2.472656 -14.273438 2.210938 -14.273438 L 1.011719 -14.273438 C 0.75 -14.273438 0.523438 -14.046875 0.523438 -13.785156 L 0.523438 -4.046875 C 0.523438 -3.785156 0.75 -3.558594 1.011719 -3.558594 L 2.210938 -3.558594 C 2.472656 -3.558594 2.695312 -3.332031 2.695312 -3.070312 L 2.695312 -2.285156 C 2.695312 -2.023438 2.921875 -1.796875 3.183594 -1.796875 L 4.382812 -1.796875 C 4.644531 -1.796875 4.871094 -1.574219 4.871094 -1.3125 L 4.871094 -0.488281 C 4.871094 -0.226562 5.09375 0 5.355469 0 Z M 4.871094 -13.785156 C 4.871094 -14.046875 5.09375 -14.273438 5.355469 -14.273438 L 13.074219 -14.273438 C 13.335938 -14.273438 13.558594 -14.046875 13.558594 -13.785156 L 13.558594 -4.046875 C 13.558594 -3.785156 13.335938 -3.558594 13.074219 -3.558594 L 5.355469 -3.558594 C 5.09375 -3.558594 4.871094 -3.785156 4.871094 -4.046875 Z M 4.871094 -13.785156 "/></g></g></g><g fill="#00ffff" fill-opacity="1"><g transform="translate(21.676966, 37.40791)"><g><path d="M 0.523438 -21.914062 C 0.523438 -21.652344 0.75 -21.425781 1.011719 -21.425781 L 4.382812 -21.425781 C 4.644531 -21.425781 4.871094 -21.652344 4.871094 -21.914062 L 4.871094 -24.496094 C 4.871094 -24.761719 4.644531 -24.984375 4.382812 -24.984375 L 1.011719 -24.984375 C 0.75 -24.984375 0.523438 -24.761719 0.523438 -24.496094 Z M 13.074219 0 C 13.335938 0 13.558594 -0.226562 13.558594 -0.488281 L 13.558594 -3.070312 C 13.558594 -3.332031 13.335938 -3.558594 13.074219 -3.558594 L 5.355469 -3.558594 C 5.09375 -3.558594 4.871094 -3.785156 4.871094 -4.046875 L 4.871094 -17.34375 C 4.871094 -17.605469 4.644531 -17.832031 4.382812 -17.832031 L 1.011719 -17.832031 C 0.75 -17.832031 0.523438 -17.605469 0.523438 -17.34375 L 0.523438 -4.046875 C 0.523438 -3.785156 0.75 -3.558594 1.011719 -3.558594 L 2.210938 -3.558594 C 2.472656 -3.558594 2.695312 -3.332031 2.695312 -3.070312 L 2.695312 -2.285156 C 2.695312 -2.023438 2.921875 -1.796875 3.183594 -1.796875 L 4.382812 -1.796875 C 4.644531 -1.796875 4.871094 -1.574219 4.871094 -1.3125 L 4.871094 -0.488281 C 4.871094 -0.226562 5.09375 0 5.355469 0 Z M 13.074219 0 "/></g></g></g><g fill="#00ffff" fill-opacity="1"><g transform="translate(37.821134, 37.40791)"><g><path d="M 0.523438 -0.488281 C 0.523438 -0.226562 0.75 0 1.011719 0 L 4.382812 0 C 4.644531 0 4.871094 -0.226562 4.871094 -0.488281 L 4.871094 -13.785156 C 4.871094 -14.046875 5.09375 -14.273438 5.355469 -14.273438 L 13.074219 -14.273438 C 13.335938 -14.273438 13.558594 -14.046875 13.558594 -13.785156 L 13.558594 -0.488281 C 13.558594 -0.226562 13.785156 0 14.046875 0 L 17.417969 0 C 17.679688 0 17.90625 -0.226562 17.90625 -0.488281 L 17.90625 -13.785156 C 17.90625 -14.046875 17.679688 -14.273438 17.417969 -14.273438 L 16.21875 -14.273438 C 15.957031 -14.273438 15.734375 -14.496094 15.734375 -14.757812 L 15.734375 -15.582031 C 15.734375 -15.84375 15.507812 -16.070312 15.246094 -16.070312 L 14.046875 -16.070312 C 13.785156 -16.070312 13.558594 -16.292969 13.558594 -16.558594 L 13.558594 -17.34375 C 13.558594 -17.605469 13.335938 -17.832031 13.074219 -17.832031 L 5.355469 -17.832031 C 5.09375 -17.832031 4.871094 -17.605469 4.871094 -17.34375 L 4.871094 -16.558594 C 4.871094 -16.292969 4.644531 -16.070312 4.382812 -16.070312 L 3.183594 -16.070312 C 2.921875 -16.070312 2.695312 -15.84375 2.695312 -15.582031 L 2.695312 -14.757812 C 2.695312 -14.496094 2.472656 -14.273438 2.210938 -14.273438 L 1.011719 -14.273438 C 0.75 -14.273438 0.523438 -14.046875 0.523438 -13.785156 Z M 0.523438 -0.488281 "/></g></g></g><g fill="#00ffff" fill-opacity="1"><g transform="translate(58.310296, 37.40791)"><g><path d="M 0.523438 -4.046875 C 0.523438 -3.785156 0.75 -3.558594 1.011719 -3.558594 L 2.210938 -3.558594 C 2.472656 -3.558594 2.695312 -3.332031 2.695312 -3.070312 L 2.695312 -2.285156 C 2.695312 -2.023438 2.921875 -1.796875 3.183594 -1.796875 L 4.382812 -1.796875 C 4.644531 -1.796875 4.871094 -1.574219 4.871094 -1.3125 L 4.871094 -0.488281 C 4.871094 -0.226562 5.09375 0 5.355469 0 L 13.074219 0 C 13.335938 0 13.558594 -0.226562 13.558594 -0.488281 L 13.558594 -1.3125 C 13.558594 -1.574219 13.785156 -1.796875 14.046875 -1.796875 L 15.246094 -1.796875 C 15.507812 -1.796875 15.734375 -2.023438 15.734375 -2.285156 L 15.734375 -3.070312 C 15.734375 -3.332031 15.957031 -3.558594 16.21875 -3.558594 L 17.417969 -3.558594 C 17.679688 -3.558594 17.90625 -3.785156 17.90625 -4.046875 L 17.90625 -24.496094 C 17.90625 -24.761719 17.679688 -24.984375 17.417969 -24.984375 L 14.046875 -24.984375 C 13.785156 -24.984375 13.558594 -24.761719 13.558594 -24.496094 L 13.558594 -4.046875 C 13.558594 -3.785156 13.335938 -3.558594 13.074219 -3.558594 L 5.355469 -3.558594 C 5.09375 -3.558594 4.871094 -3.785156 4.871094 -4.046875 L 4.871094 -17.34375 C 4.871094 -17.605469 4.644531 -17.832031 4.382812 -17.832031 L 1.011719 -17.832031 C 0.75 -17.832031 0.523438 -17.605469 0.523438 -17.34375 Z M 0.523438 -4.046875 "/></g></g></g><g fill="#00ffff" fill-opacity="1"><g transform="translate(78.799458, 37.40791)"><g><path d="M 0.523438 -21.914062 C 0.523438 -21.652344 0.75 -21.425781 1.011719 -21.425781 L 4.382812 -21.425781 C 4.644531 -21.425781 4.871094 -21.652344 4.871094 -21.914062 L 4.871094 -24.496094 C 4.871094 -24.761719 4.644531 -24.984375 4.382812 -24.984375 L 1.011719 -24.984375 C 0.75 -24.984375 0.523438 -24.761719 0.523438 -24.496094 Z M 13.074219 0 C 13.335938 0 13.558594 -0.226562 13.558594 -0.488281 L 13.558594 -3.070312 C 13.558594 -3.332031 13.335938 -3.558594 13.074219 -3.558594 L 5.355469 -3.558594 C 5.09375 -3.558594 4.871094 -3.785156 4.871094 -4.046875 L 4.871094 -17.34375 C 4.871094 -17.605469 4.644531 -17.832031 4.382812 -17.832031 L 1.011719 -17.832031 C 0.75 -17.832031 0.523438 -17.605469 0.523438 -17.34375 L 0.523438 -4.046875 C 0.523438 -3.785156 0.75 -3.558594 1.011719 -3.558594 L 2.210938 -3.558594 C 2.472656 -3.558594 2.695312 -3.332031 2.695312 -3.070312 L 2.695312 -2.285156 C 2.695312 -2.023438 2.921875 -1.796875 3.183594 -1.796875 L 4.382812 -1.796875 C 4.644531 -1.796875 4.871094 -1.574219 4.871094 -1.3125 L 4.871094 -0.488281 C 4.871094 -0.226562 5.09375 0 5.355469 0 Z M 13.074219 0 "/></g></g></g><g fill="#00ffff" fill-opacity="1"><g transform="translate(94.943625, 37.40791)"><g><path d="M 13.074219 0 C 13.335938 0 13.558594 -0.226562 13.558594 -0.488281 L 13.558594 -3.070312 C 13.558594 -3.332031 13.335938 -3.558594 13.074219 -3.558594 L 5.355469 -3.558594 C 5.09375 -3.558594 4.871094 -3.785156 4.871094 -4.046875 L 4.871094 -24.496094 C 4.871094 -24.761719 4.644531 -24.984375 4.382812 -24.984375 L 1.011719 -24.984375 C 0.75 -24.984375 0.523438 -24.761719 0.523438 -24.496094 L 0.523438 -4.046875 C 0.523438 -3.785156 0.75 -3.558594 1.011719 -3.558594 L 2.210938 -3.558594 C 2.472656 -3.558594 2.695312 -3.332031 2.695312 -3.070312 L 2.695312 -2.285156 C 2.695312 -2.023438 2.921875 -1.796875 3.183594 -1.796875 L 4.382812 -1.796875 C 4.644531 -1.796875 4.871094 -1.574219 4.871094 -1.3125 L 4.871094 -0.488281 C 4.871094 -0.226562 5.09375 0 5.355469 0 Z M 13.074219 0 "/></g></g></g><g fill="#00ffff" fill-opacity="1"><g transform="translate(111.087793, 37.40791)"><g><path d="M 13.074219 0 C 13.335938 0 13.558594 -0.226562 13.558594 -0.488281 L 13.558594 -3.070312 C 13.558594 -3.332031 13.335938 -3.558594 13.074219 -3.558594 L 5.355469 -3.558594 C 5.09375 -3.558594 4.871094 -3.785156 4.871094 -4.046875 L 4.871094 -24.496094 C 4.871094 -24.761719 4.644531 -24.984375 4.382812 -24.984375 L 1.011719 -24.984375 C 0.75 -24.984375 0.523438 -24.761719 0.523438 -24.496094 L 0.523438 -4.046875 C 0.523438 -3.785156 0.75 -3.558594 1.011719 -3.558594 L 2.210938 -3.558594 C 2.472656 -3.558594 2.695312 -3.332031 2.695312 -3.070312 L 2.695312 -2.285156 C 2.695312 -2.023438 2.921875 -1.796875 3.183594 -1.796875 L 4.382812 -1.796875 C 4.644531 -1.796875 4.871094 -1.574219 4.871094 -1.3125 L 4.871094 -0.488281 C 4.871094 -0.226562 5.09375 0 5.355469 0 Z M 13.074219 0 "/></g></g></g><g fill="#00ffff" fill-opacity="1"><g transform="translate(127.231961, 37.40791)"><g><path d="M 17.417969 -7.117188 C 17.679688 -7.117188 17.90625 -7.34375 17.90625 -7.605469 L 17.90625 -10.1875 C 17.90625 -10.449219 17.679688 -10.675781 17.417969 -10.675781 L 5.355469 -10.675781 C 5.09375 -10.675781 4.871094 -10.902344 4.871094 -11.164062 L 4.871094 -13.785156 C 4.871094 -14.046875 5.09375 -14.273438 5.355469 -14.273438 L 17.417969 -14.273438 C 17.679688 -14.273438 17.90625 -14.496094 17.90625 -14.757812 L 17.90625 -17.34375 C 17.90625 -17.605469 17.679688 -17.832031 17.417969 -17.832031 L 5.355469 -17.832031 C 5.09375 -17.832031 4.871094 -17.605469 4.871094 -17.34375 L 4.871094 -16.558594 C 4.871094 -16.292969 4.644531 -16.070312 4.382812 -16.070312 L 3.183594 -16.070312 C 2.921875 -16.070312 2.695312 -15.84375 2.695312 -15.582031 L 2.695312 -14.757812 C 2.695312 -14.496094 2.472656 -14.273438 2.210938 -14.273438 L 1.011719 -14.273438 C 0.75 -14.273438 0.523438 -14.046875 0.523438 -13.785156 L 0.523438 -4.046875 C 0.523438 -3.785156 0.75 -3.558594 1.011719 -3.558594 L 2.210938 -3.558594 C 2.472656 -3.558594 2.695312 -3.332031 2.695312 -3.070312 L 2.695312 -2.285156 C 2.695312 -2.023438 2.921875 -1.796875 3.183594 -1.796875 L 4.382812 -1.796875 C 4.644531 -1.796875 4.871094 -1.574219 4.871094 -1.3125 L 4.871094 -0.488281 C 4.871094 -0.226562 5.09375 0 5.355469 0 L 17.417969 0 C 17.679688 0 17.90625 -0.226562 17.90625 -0.488281 L 17.90625 -3.070312 C 17.90625 -3.332031 17.679688 -3.558594 17.417969 -3.558594 L 5.355469 -3.558594 C 5.09375 -3.558594 4.871094 -3.785156 4.871094 -4.046875 L 4.871094 -6.628906 C 4.871094 -6.890625 5.09375 -7.117188 5.355469 -7.117188 Z M 17.417969 -7.117188 "/></g></g></g><g fill="#00ffff" fill-opacity="1"><g transform="translate(147.721123, 37.40791)"><g><path d="M 4.871094 -0.488281 L 4.871094 -3.070312 C 4.871094 -3.332031 4.644531 -3.558594 4.382812 -3.558594 L 1.011719 -3.558594 C 0.75 -3.558594 0.523438 -3.332031 0.523438 -3.070312 L 0.523438 -0.488281 C 0.523438 -0.226562 0.75 0 1.011719 0 L 4.382812 0 C 4.644531 0 4.871094 -0.226562 4.871094 -0.488281 Z M 4.871094 -0.488281 "/></g></g></g><g fill="#00ffff" fill-opacity="1"><g transform="translate(155.175317, 37.40791)"><g><path d="M 13.558594 -4.046875 C 13.558594 -3.785156 13.335938 -3.558594 13.074219 -3.558594 L 5.355469 -3.558594 C 5.09375 -3.558594 4.871094 -3.785156 4.871094 -4.046875 L 4.871094 -13.785156 C 4.871094 -14.046875 5.09375 -14.273438 5.355469 -14.273438 L 13.074219 -14.273438 C 13.335938 -14.273438 13.558594 -14.046875 13.558594 -13.785156 Z M 17.90625 -24.496094 C 17.90625 -24.761719 17.679688 -24.984375 17.417969 -24.984375 L 14.046875 -24.984375 C 13.785156 -24.984375 13.558594 -24.761719 13.558594 -24.496094 L 13.558594 -18.316406 C 13.558594 -18.054688 13.335938 -17.832031 13.074219 -17.832031 L 5.355469 -17.832031 C 5.09375 -17.832031 4.871094 -17.605469 4.871094 -17.34375 L 4.871094 -16.558594 C 4.871094 -16.292969 4.644531 -16.070312 4.382812 -16.070312 L 3.183594 -16.070312 C 2.921875 -16.070312 2.695312 -15.84375 2.695312 -15.582031 L 2.695312 -14.757812 C 2.695312 -14.496094 2.472656 -14.273438 2.210938 -14.273438 L 1.011719 -14.273438 C 0.75 -14.273438 0.523438 -14.046875 0.523438 -13.785156 L 0.523438 -4.046875 C 0.523438 -3.785156 0.75 -3.558594 1.011719 -3.558594 L 2.210938 -3.558594 C 2.472656 -3.558594 2.695312 -3.332031 2.695312 -3.070312 L 2.695312 -2.285156 C 2.695312 -2.023438 2.921875 -1.796875 3.183594 -1.796875 L 4.382812 -1.796875 C 4.644531 -1.796875 4.871094 -1.574219 4.871094 -1.3125 L 4.871094 -0.488281 C 4.871094 -0.226562 5.09375 0 5.355469 0 L 13.074219 0 C 13.335938 0 13.558594 -0.226562 13.558594 -0.488281 L 13.558594 -1.3125 C 13.558594 -1.574219 13.785156 -1.796875 14.046875 -1.796875 L 15.246094 -1.796875 C 15.507812 -1.796875 15.734375 -2.023438 15.734375 -2.285156 L 15.734375 -3.070312 C 15.734375 -3.332031 15.957031 -3.558594 16.21875 -3.558594 L 17.417969 -3.558594 C 17.679688 -3.558594 17.90625 -3.785156 17.90625 -4.046875 Z M 17.90625 -24.496094 "/></g></g></g><g fill="#00ffff" fill-opacity="1"><g transform="translate(175.664479, 37.40791)"><g><path d="M 17.417969 -7.117188 C 17.679688 -7.117188 17.90625 -7.34375 17.90625 -7.605469 L 17.90625 -10.1875 C 17.90625 -10.449219 17.679688 -10.675781 17.417969 -10.675781 L 5.355469 -10.675781 C 5.09375 -10.675781 4.871094 -10.902344 4.871094 -11.164062 L 4.871094 -13.785156 C 4.871094 -14.046875 5.09375 -14.273438 5.355469 -14.273438 L 17.417969 -14.273438 C 17.679688 -14.273438 17.90625 -14.496094 17.90625 -14.757812 L 17.90625 -17.34375 C 17.90625 -17.605469 17.679688 -17.832031 17.417969 -17.832031 L 5.355469 -17.832031 C 5.09375 -17.832031 4.871094 -17.605469 4.871094 -17.34375 L 4.871094 -16.558594 C 4.871094 -16.292969 4.644531 -16.070312 4.382812 -16.070312 L 3.183594 -16.070312 C 2.921875 -16.070312 2.695312 -15.84375 2.695312 -15.582031 L 2.695312 -14.757812 C 2.695312 -14.496094 2.472656 -14.273438 2.210938 -14.273438 L 1.011719 -14.273438 C 0.75 -14.273438 0.523438 -14.046875 0.523438 -13.785156 L 0.523438 -4.046875 C 0.523438 -3.785156 0.75 -3.558594 1.011719 -3.558594 L 2.210938 -3.558594 C 2.472656 -3.558594 2.695312 -3.332031 2.695312 -3.070312 L 2.695312 -2.285156 C 2.695312 -2.023438 2.921875 -1.796875 3.183594 -1.796875 L 4.382812 -1.796875 C 4.644531 -1.796875 4.871094 -1.574219 4.871094 -1.3125 L 4.871094 -0.488281 C 4.871094 -0.226562 5.09375 0 5.355469 0 L 17.417969 0 C 17.679688 0 17.90625 -0.226562 17.90625 -0.488281 L 17.90625 -3.070312 C 17.90625 -3.332031 17.679688 -3.558594 17.417969 -3.558594 L 5.355469 -3.558594 C 5.09375 -3.558594 4.871094 -3.785156 4.871094 -4.046875 L 4.871094 -6.628906 C 4.871094 -6.890625 5.09375 -7.117188 5.355469 -7.117188 Z M 17.417969 -7.117188 "/></g></g></g><g fill="#00ffff" fill-opacity="1"><g transform="translate(196.153641, 37.40791)"><g><path d="M 0.523438 -4.046875 C 0.523438 -3.785156 0.75 -3.558594 1.011719 -3.558594 L 2.210938 -3.558594 C 2.472656 -3.558594 2.695312 -3.332031 2.695312 -3.070312 L 2.695312 -2.285156 C 2.695312 -2.023438 2.921875 -1.796875 3.183594 -1.796875 L 4.382812 -1.796875 C 4.644531 -1.796875 4.871094 -1.574219 4.871094 -1.3125 L 4.871094 -0.488281 C 4.871094 -0.226562 5.09375 0 5.355469 0 L 13.074219 0 C 13.335938 0 13.558594 -0.226562 13.558594 -0.488281 L 13.558594 -1.3125 C 13.558594 -1.574219 13.785156 -1.796875 14.046875 -1.796875 L 15.246094 -1.796875 C 15.507812 -1.796875 15.734375 -2.023438 15.734375 -2.285156 L 15.734375 -3.070312 C 15.734375 -3.332031 15.957031 -3.558594 16.21875 -3.558594 L 17.417969 -3.558594 C 17.679688 -3.558594 17.90625 -3.785156 17.90625 -4.046875 L 17.90625 -24.496094 C 17.90625 -24.761719 17.679688 -24.984375 17.417969 -24.984375 L 14.046875 -24.984375 C 13.785156 -24.984375 13.558594 -24.761719 13.558594 -24.496094 L 13.558594 -4.046875 C 13.558594 -3.785156 13.335938 -3.558594 13.074219 -3.558594 L 5.355469 -3.558594 C 5.09375 -3.558594 4.871094 -3.785156 4.871094 -4.046875 L 4.871094 -17.34375 C 4.871094 -17.605469 4.644531 -17.832031 4.382812 -17.832031 L 1.011719 -17.832031 C 0.75 -17.832031 0.523438 -17.605469 0.523438 -17.34375 Z M 0.523438 -4.046875 "/></g></g></g><g fill="#000000" fill-opacity="1"><g transform="translate(1.89021, 37.40791)"><g><path d="M 5.355469 0 L 13.074219 0 C 13.335938 0 13.558594 -0.226562 13.558594 -0.488281 L 13.558594 -1.3125 C 13.558594 -1.574219 13.785156 -1.796875 14.046875 -1.796875 L 15.246094 -1.796875 C 15.507812 -1.796875 15.734375 -2.023438 15.734375 -2.285156 L 15.734375 -3.070312 C 15.734375 -3.332031 15.957031 -3.558594 16.21875 -3.558594 L 17.417969 -3.558594 C 17.679688 -3.558594 17.90625 -3.785156 17.90625 -4.046875 L 17.90625 -13.785156 C 17.90625 -14.046875 17.679688 -14.273438 17.417969 -14.273438 L 16.21875 -14.273438 C 15.957031 -14.273438 15.734375 -14.496094 15.734375 -14.757812 L 15.734375 -15.582031 C 15.734375 -15.84375 15.507812 -16.070312 15.246094 -16.070312 L 14.046875 -16.070312 C 13.785156 -16.070312 13.558594 -16.292969 13.558594 -16.558594 L 13.558594 -17.34375 C 13.558594 -17.605469 13.335938 -17.832031 13.074219 -17.832031 L 5.355469 -17.832031 C 5.09375 -17.832031 4.871094 -17.605469 4.871094 -17.34375 L 4.871094 -16.558594 C 4.871094 -16.292969 4.644531 -16.070312 4.382812 -16.070312 L 3.183594 -16.070312 C 2.921875 -16.070312 2.695312 -15.84375 2.695312 -15.582031 L 2.695312 -14.757812 C 2.695312 -14.496094 2.472656 -14.273438 2.210938 -14.273438 L 1.011719 -14.273438 C 0.75 -14.273438 0.523438 -14.046875 0.523438 -13.785156 L 0.523438 -4.046875 C 0.523438 -3.785156 0.75 -3.558594 1.011719 -3.558594 L 2.210938 -3.558594 C 2.472656 -3.558594 2.695312 -3.332031 2.695312 -3.070312 L 2.695312 -2.285156 C 2.695312 -2.023438 2.921875 -1.796875 3.183594 -1.796875 L 4.382812 -1.796875 C 4.644531 -1.796875 4.871094 -1.574219 4.871094 -1.3125 L 4.871094 -0.488281 C 4.871094 -0.226562 5.09375 0 5.355469 0 Z M 4.871094 -13.785156 C 4.871094 -14.046875 5.09375 -14.273438 5.355469 -14.273438 L 13.074219 -14.273438 C 13.335938 -14.273438 13.558594 -14.046875 13.558594 -13.785156 L 13.558594 -4.046875 C 13.558594 -3.785156 13.335938 -3.558594 13.074219 -3.558594 L 5.355469 -3.558594 C 5.09375 -3.558594 4.871094 -3.785156 4.871094 -4.046875 Z M 4.871094 -13.785156 "/></g></g></g><g fill="#000000" fill-opacity="1"><g transform="translate(22.379372, 37.40791)"><g><path d="M 0.523438 -21.914062 C 0.523438 -21.652344 0.75 -21.425781 1.011719 -21.425781 L 4.382812 -21.425781 C 4.644531 -21.425781 4.871094 -21.652344 4.871094 -21.914062 L 4.871094 -24.496094 C 4.871094 -24.761719 4.644531 -24.984375 4.382812 -24.984375 L 1.011719 -24.984375 C 0.75 -24.984375 0.523438 -24.761719 0.523438 -24.496094 Z M 13.074219 0 C 13.335938 0 13.558594 -0.226562 13.558594 -0.488281 L 13.558594 -3.070312 C 13.558594 -3.332031 13.335938 -3.558594 13.074219 -3.558594 L 5.355469 -3.558594 C 5.09375 -3.558594 4.871094 -3.785156 4.871094 -4.046875 L 4.871094 -17.34375 C 4.871094 -17.605469 4.644531 -17.832031 4.382812 -17.832031 L 1.011719 -17.832031 C 0.75 -17.832031 0.523438 -17.605469 0.523438 -17.34375 L 0.523438 -4.046875 C 0.523438 -3.785156 0.75 -3.558594 1.011719 -3.558594 L 2.210938 -3.558594 C 2.472656 -3.558594 2.695312 -3.332031 2.695312 -3.070312 L 2.695312 -2.285156 C 2.695312 -2.023438 2.921875 -1.796875 3.183594 -1.796875 L 4.382812 -1.796875 C 4.644531 -1.796875 4.871094 -1.574219 4.871094 -1.3125 L 4.871094 -0.488281 C 4.871094 -0.226562 5.09375 0 5.355469 0 Z M 13.074219 0 "/></g></g></g><g fill="#000000" fill-opacity="1"><g transform="translate(38.523539, 37.40791)"><g><path d="M 0.523438 -0.488281 C 0.523438 -0.226562 0.75 0 1.011719 0 L 4.382812 0 C 4.644531 0 4.871094 -0.226562 4.871094 -0.488281 L 4.871094 -13.785156 C 4.871094 -14.046875 5.09375 -14.273438 5.355469 -14.273438 L 13.074219 -14.273438 C 13.335938 -14.273438 13.558594 -14.046875 13.558594 -13.785156 L 13.558594 -0.488281 C 13.558594 -0.226562 13.785156 0 14.046875 0 L 17.417969 0 C 17.679688 0 17.90625 -0.226562 17.90625 -0.488281 L 17.90625 -13.785156 C 17.90625 -14.046875 17.679688 -14.273438 17.417969 -14.273438 L 16.21875 -14.273438 C 15.957031 -14.273438 15.734375 -14.496094 15.734375 -14.757812 L 15.734375 -15.582031 C 15.734375 -15.84375 15.507812 -16.070312 15.246094 -16.070312 L 14.046875 -16.070312 C 13.785156 -16.070312 13.558594 -16.292969 13.558594 -16.558594 L 13.558594 -17.34375 C 13.558594 -17.605469 13.335938 -17.832031 13.074219 -17.832031 L 5.355469 -17.832031 C 5.09375 -17.832031 4.871094 -17.605469 4.871094 -17.34375 L 4.871094 -16.558594 C 4.871094 -16.292969 4.644531 -16.070312 4.382812 -16.070312 L 3.183594 -16.070312 C 2.921875 -16.070312 2.695312 -15.84375 2.695312 -15.582031 L 2.695312 -14.757812 C 2.695312 -14.496094 2.472656 -14.273438 2.210938 -14.273438 L 1.011719 -14.273438 C 0.75 -14.273438 0.523438 -14.046875 0.523438 -13.785156 Z M 0.523438 -0.488281 "/></g></g></g><g fill="#000000" fill-opacity="1"><g transform="translate(59.012701, 37.40791)"><g><path d="M 0.523438 -4.046875 C 0.523438 -3.785156 0.75 -3.558594 1.011719 -3.558594 L 2.210938 -3.558594 C 2.472656 -3.558594 2.695312 -3.332031 2.695312 -3.070312 L 2.695312 -2.285156 C 2.695312 -2.023438 2.921875 -1.796875 3.183594 -1.796875 L 4.382812 -1.796875 C 4.644531 -1.796875 4.871094 -1.574219 4.871094 -1.3125 L 4.871094 -0.488281 C 4.871094 -0.226562 5.09375 0 5.355469 0 L 13.074219 0 C 13.335938 0 13.558594 -0.226562 13.558594 -0.488281 L 13.558594 -1.3125 C 13.558594 -1.574219 13.785156 -1.796875 14.046875 -1.796875 L 15.246094 -1.796875 C 15.507812 -1.796875 15.734375 -2.023438 15.734375 -2.285156 L 15.734375 -3.070312 C 15.734375 -3.332031 15.957031 -3.558594 16.21875 -3.558594 L 17.417969 -3.558594 C 17.679688 -3.558594 17.90625 -3.785156 17.90625 -4.046875 L 17.90625 -24.496094 C 17.90625 -24.761719 17.679688 -24.984375 17.417969 -24.984375 L 14.046875 -24.984375 C 13.785156 -24.984375 13.558594 -24.761719 13.558594 -24.496094 L 13.558594 -4.046875 C 13.558594 -3.785156 13.335938 -3.558594 13.074219 -3.558594 L 5.355469 -3.558594 C 5.09375 -3.558594 4.871094 -3.785156 4.871094 -4.046875 L 4.871094 -17.34375 C 4.871094 -17.605469 4.644531 -17.832031 4.382812 -17.832031 L 1.011719 -17.832031 C 0.75 -17.832031 0.523438 -17.605469 0.523438 -17.34375 Z M 0.523438 -4.046875 "/></g></g></g><g fill="#000000" fill-opacity="1"><g transform="translate(79.501863, 37.40791)"><g><path d="M 0.523438 -21.914062 C 0.523438 -21.652344 0.75 -21.425781 1.011719 -21.425781 L 4.382812 -21.425781 C 4.644531 -21.425781 4.871094 -21.652344 4.871094 -21.914062 L 4.871094 -24.496094 C 4.871094 -24.761719 4.644531 -24.984375 4.382812 -24.984375 L 1.011719 -24.984375 C 0.75 -24.984375 0.523438 -24.761719 0.523438 -24.496094 Z M 13.074219 0 C 13.335938 0 13.558594 -0.226562 13.558594 -0.488281 L 13.558594 -3.070312 C 13.558594 -3.332031 13.335938 -3.558594 13.074219 -3.558594 L 5.355469 -3.558594 C 5.09375 -3.558594 4.871094 -3.785156 4.871094 -4.046875 L 4.871094 -17.34375 C 4.871094 -17.605469 4.644531 -17.832031 4.382812 -17.832031 L 1.011719 -17.832031 C 0.75 -17.832031 0.523438 -17.605469 0.523438 -17.34375 L 0.523438 -4.046875 C 0.523438 -3.785156 0.75 -3.558594 1.011719 -3.558594 L 2.210938 -3.558594 C 2.472656 -3.558594 2.695312 -3.332031 2.695312 -3.070312 L 2.695312 -2.285156 C 2.695312 -2.023438 2.921875 -1.796875 3.183594 -1.796875 L 4.382812 -1.796875 C 4.644531 -1.796875 4.871094 -1.574219 4.871094 -1.3125 L 4.871094 -0.488281 C 4.871094 -0.226562 5.09375 0 5.355469 0 Z M 13.074219 0 "/></g></g></g><g fill="#000000" fill-opacity="1"><g transform="translate(95.646031, 37.40791)"><g><path d="M 13.074219 0 C 13.335938 0 13.558594 -0.226562 13.558594 -0.488281 L 13.558594 -3.070312 C 13.558594 -3.332031 13.335938 -3.558594 13.074219 -3.558594 L 5.355469 -3.558594 C 5.09375 -3.558594 4.871094 -3.785156 4.871094 -4.046875 L 4.871094 -24.496094 C 4.871094 -24.761719 4.644531 -24.984375 4.382812 -24.984375 L 1.011719 -24.984375 C 0.75 -24.984375 0.523438 -24.761719 0.523438 -24.496094 L 0.523438 -4.046875 C 0.523438 -3.785156 0.75 -3.558594 1.011719 -3.558594 L 2.210938 -3.558594 C 2.472656 -3.558594 2.695312 -3.332031 2.695312 -3.070312 L 2.695312 -2.285156 C 2.695312 -2.023438 2.921875 -1.796875 3.183594 -1.796875 L 4.382812 -1.796875 C 4.644531 -1.796875 4.871094 -1.574219 4.871094 -1.3125 L 4.871094 -0.488281 C 4.871094 -0.226562 5.09375 0 5.355469 0 Z M 13.074219 0 "/></g></g></g><g fill="#000000" fill-opacity="1"><g transform="translate(111.790199, 37.40791)"><g><path d="M 13.074219 0 C 13.335938 0 13.558594 -0.226562 13.558594 -0.488281 L 13.558594 -3.070312 C 13.558594 -3.332031 13.335938 -3.558594 13.074219 -3.558594 L 5.355469 -3.558594 C 5.09375 -3.558594 4.871094 -3.785156 4.871094 -4.046875 L 4.871094 -24.496094 C 4.871094 -24.761719 4.644531 -24.984375 4.382812 -24.984375 L 1.011719 -24.984375 C 0.75 -24.984375 0.523438 -24.761719 0.523438 -24.496094 L 0.523438 -4.046875 C 0.523438 -3.785156 0.75 -3.558594 1.011719 -3.558594 L 2.210938 -3.558594 C 2.472656 -3.558594 2.695312 -3.332031 2.695312 -3.070312 L 2.695312 -2.285156 C 2.695312 -2.023438 2.921875 -1.796875 3.183594 -1.796875 L 4.382812 -1.796875 C 4.644531 -1.796875 4.871094 -1.574219 4.871094 -1.3125 L 4.871094 -0.488281 C 4.871094 -0.226562 5.09375 0 5.355469 0 Z M 13.074219 0 "/></g></g></g><g fill="#000000" fill-opacity="1"><g transform="translate(127.934366, 37.40791)"><g><path d="M 17.417969 -7.117188 C 17.679688 -7.117188 17.90625 -7.34375 17.90625 -7.605469 L 17.90625 -10.1875 C 17.90625 -10.449219 17.679688 -10.675781 17.417969 -10.675781 L 5.355469 -10.675781 C 5.09375 -10.675781 4.871094 -10.902344 4.871094 -11.164062 L 4.871094 -13.785156 C 4.871094 -14.046875 5.09375 -14.273438 5.355469 -14.273438 L 17.417969 -14.273438 C 17.679688 -14.273438 17.90625 -14.496094 17.90625 -14.757812 L 17.90625 -17.34375 C 17.90625 -17.605469 17.679688 -17.832031 17.417969 -17.832031 L 5.355469 -17.832031 C 5.09375 -17.832031 4.871094 -17.605469 4.871094 -17.34375 L 4.871094 -16.558594 C 4.871094 -16.292969 4.644531 -16.070312 4.382812 -16.070312 L 3.183594 -16.070312 C 2.921875 -16.070312 2.695312 -15.84375 2.695312 -15.582031 L 2.695312 -14.757812 C 2.695312 -14.496094 2.472656 -14.273438 2.210938 -14.273438 L 1.011719 -14.273438 C 0.75 -14.273438 0.523438 -14.046875 0.523438 -13.785156 L 0.523438 -4.046875 C 0.523438 -3.785156 0.75 -3.558594 1.011719 -3.558594 L 2.210938 -3.558594 C 2.472656 -3.558594 2.695312 -3.332031 2.695312 -3.070312 L 2.695312 -2.285156 C 2.695312 -2.023438 2.921875 -1.796875 3.183594 -1.796875 L 4.382812 -1.796875 C 4.644531 -1.796875 4.871094 -1.574219 4.871094 -1.3125 L 4.871094 -0.488281 C 4.871094 -0.226562 5.09375 0 5.355469 0 L 17.417969 0 C 17.679688 0 17.90625 -0.226562 17.90625 -0.488281 L 17.90625 -3.070312 C 17.90625 -3.332031 17.679688 -3.558594 17.417969 -3.558594 L 5.355469 -3.558594 C 5.09375 -3.558594 4.871094 -3.785156 4.871094 -4.046875 L 4.871094 -6.628906 C 4.871094 -6.890625 5.09375 -7.117188 5.355469 -7.117188 Z M 17.417969 -7.117188 "/></g></g></g><g fill="#000000" fill-opacity="1"><g transform="translate(148.423528, 37.40791)"><g><path d="M 4.871094 -0.488281 L 4.871094 -3.070312 C 4.871094 -3.332031 4.644531 -3.558594 4.382812 -3.558594 L 1.011719 -3.558594 C 0.75 -3.558594 0.523438 -3.332031 0.523438 -3.070312 L 0.523438 -0.488281 C 0.523438 -0.226562 0.75 0 1.011719 0 L 4.382812 0 C 4.644531 0 4.871094 -0.226562 4.871094 -0.488281 Z M 4.871094 -0.488281 "/></g></g></g><g fill="#000000" fill-opacity="1"><g transform="translate(155.877722, 37.40791)"><g><path d="M 13.558594 -4.046875 C 13.558594 -3.785156 13.335938 -3.558594 13.074219 -3.558594 L 5.355469 -3.558594 C 5.09375 -3.558594 4.871094 -3.785156 4.871094 -4.046875 L 4.871094 -13.785156 C 4.871094 -14.046875 5.09375 -14.273438 5.355469 -14.273438 L 13.074219 -14.273438 C 13.335938 -14.273438 13.558594 -14.046875 13.558594 -13.785156 Z M 17.90625 -24.496094 C 17.90625 -24.761719 17.679688 -24.984375 17.417969 -24.984375 L 14.046875 -24.984375 C 13.785156 -24.984375 13.558594 -24.761719 13.558594 -24.496094 L 13.558594 -18.316406 C 13.558594 -18.054688 13.335938 -17.832031 13.074219 -17.832031 L 5.355469 -17.832031 C 5.09375 -17.832031 4.871094 -17.605469 4.871094 -17.34375 L 4.871094 -16.558594 C 4.871094 -16.292969 4.644531 -16.070312 4.382812 -16.070312 L 3.183594 -16.070312 C 2.921875 -16.070312 2.695312 -15.84375 2.695312 -15.582031 L 2.695312 -14.757812 C 2.695312 -14.496094 2.472656 -14.273438 2.210938 -14.273438 L 1.011719 -14.273438 C 0.75 -14.273438 0.523438 -14.046875 0.523438 -13.785156 L 0.523438 -4.046875 C 0.523438 -3.785156 0.75 -3.558594 1.011719 -3.558594 L 2.210938 -3.558594 C 2.472656 -3.558594 2.695312 -3.332031 2.695312 -3.070312 L 2.695312 -2.285156 C 2.695312 -2.023438 2.921875 -1.796875 3.183594 -1.796875 L 4.382812 -1.796875 C 4.644531 -1.796875 4.871094 -1.574219 4.871094 -1.3125 L 4.871094 -0.488281 C 4.871094 -0.226562 5.09375 0 5.355469 0 L 13.074219 0 C 13.335938 0 13.558594 -0.226562 13.558594 -0.488281 L 13.558594 -1.3125 C 13.558594 -1.574219 13.785156 -1.796875 14.046875 -1.796875 L 15.246094 -1.796875 C 15.507812 -1.796875 15.734375 -2.023438 15.734375 -2.285156 L 15.734375 -3.070312 C 15.734375 -3.332031 15.957031 -3.558594 16.21875 -3.558594 L 17.417969 -3.558594 C 17.679688 -3.558594 17.90625 -3.785156 17.90625 -4.046875 Z M 17.90625 -24.496094 "/></g></g></g><g fill="#000000" fill-opacity="1"><g transform="translate(176.366884, 37.40791)"><g><path d="M 17.417969 -7.117188 C 17.679688 -7.117188 17.90625 -7.34375 17.90625 -7.605469 L 17.90625 -10.1875 C 17.90625 -10.449219 17.679688 -10.675781 17.417969 -10.675781 L 5.355469 -10.675781 C 5.09375 -10.675781 4.871094 -10.902344 4.871094 -11.164062 L 4.871094 -13.785156 C 4.871094 -14.046875 5.09375 -14.273438 5.355469 -14.273438 L 17.417969 -14.273438 C 17.679688 -14.273438 17.90625 -14.496094 17.90625 -14.757812 L 17.90625 -17.34375 C 17.90625 -17.605469 17.679688 -17.832031 17.417969 -17.832031 L 5.355469 -17.832031 C 5.09375 -17.832031 4.871094 -17.605469 4.871094 -17.34375 L 4.871094 -16.558594 C 4.871094 -16.292969 4.644531 -16.070312 4.382812 -16.070312 L 3.183594 -16.070312 C 2.921875 -16.070312 2.695312 -15.84375 2.695312 -15.582031 L 2.695312 -14.757812 C 2.695312 -14.496094 2.472656 -14.273438 2.210938 -14.273438 L 1.011719 -14.273438 C 0.75 -14.273438 0.523438 -14.046875 0.523438 -13.785156 L 0.523438 -4.046875 C 0.523438 -3.785156 0.75 -3.558594 1.011719 -3.558594 L 2.210938 -3.558594 C 2.472656 -3.558594 2.695312 -3.332031 2.695312 -3.070312 L 2.695312 -2.285156 C 2.695312 -2.023438 2.921875 -1.796875 3.183594 -1.796875 L 4.382812 -1.796875 C 4.644531 -1.796875 4.871094 -1.574219 4.871094 -1.3125 L 4.871094 -0.488281 C 4.871094 -0.226562 5.09375 0 5.355469 0 L 17.417969 0 C 17.679688 0 17.90625 -0.226562 17.90625 -0.488281 L 17.90625 -3.070312 C 17.90625 -3.332031 17.679688 -3.558594 17.417969 -3.558594 L 5.355469 -3.558594 C 5.09375 -3.558594 4.871094 -3.785156 4.871094 -4.046875 L 4.871094 -6.628906 C 4.871094 -6.890625 5.09375 -7.117188 5.355469 -7.117188 Z M 17.417969 -7.117188 "/></g></g></g><g fill="#000000" fill-opacity="1"><g transform="translate(196.856046, 37.40791)"><g><path d="M 0.523438 -4.046875 C 0.523438 -3.785156 0.75 -3.558594 1.011719 -3.558594 L 2.210938 -3.558594 C 2.472656 -3.558594 2.695312 -3.332031 2.695312 -3.070312 L 2.695312 -2.285156 C 2.695312 -2.023438 2.921875 -1.796875 3.183594 -1.796875 L 4.382812 -1.796875 C 4.644531 -1.796875 4.871094 -1.574219 4.871094 -1.3125 L 4.871094 -0.488281 C 4.871094 -0.226562 5.09375 0 5.355469 0 L 13.074219 0 C 13.335938 0 13.558594 -0.226562 13.558594 -0.488281 L 13.558594 -1.3125 C 13.558594 -1.574219 13.785156 -1.796875 14.046875 -1.796875 L 15.246094 -1.796875 C 15.507812 -1.796875 15.734375 -2.023438 15.734375 -2.285156 L 15.734375 -3.070312 C 15.734375 -3.332031 15.957031 -3.558594 16.21875 -3.558594 L 17.417969 -3.558594 C 17.679688 -3.558594 17.90625 -3.785156 17.90625 -4.046875 L 17.90625 -24.496094 C 17.90625 -24.761719 17.679688 -24.984375 17.417969 -24.984375 L 14.046875 -24.984375 C 13.785156 -24.984375 13.558594 -24.761719 13.558594 -24.496094 L 13.558594 -4.046875 C 13.558594 -3.785156 13.335938 -3.558594 13.074219 -3.558594 L 5.355469 -3.558594 C 5.09375 -3.558594 4.871094 -3.785156 4.871094 -4.046875 L 4.871094 -17.34375 C 4.871094 -17.605469 4.644531 -17.832031 4.382812 -17.832031 L 1.011719 -17.832031 C 0.75 -17.832031 0.523438 -17.605469 0.523438 -17.34375 Z M 0.523438 -4.046875 "/></g></g></g></g></g></svg>